<?xml version="1.0" encoding="utf-8"?>
<svg xmlns="http://www.w3.org/2000/svg" style="margin: auto; background: rgb(241, 242, 243); display: block; shape-rendering: auto;" width="290" height="250" preserveAspectRatio="xMidYMid">
<style type="text/css">
  text {
    text-anchor: middle; font-size: 22px; opacity: 0;
  }
</style>
<g transform="translate(145,125)">
  <g transform="translate(0,0)"><g class="path" style="transform-origin: -101.745px 0.726135px; opacity: 1; animation: 2.77778s linear -1.74603s infinite normal forwards running blink-377dbc8d-ed30-4d4e-a13a-a3dacd28c4da;"><path d="M4.62-2.99L4.62-2.99L4.62-2.99Q4.62 0.31 6.75 1.36L6.75 1.36L6.75 1.36Q7.28 1.43 8.15 1.43L8.15 1.43L8.15 1.43Q9.02 1.43 9.99 1.10L9.99 1.10L9.99 1.10Q10.96 0.77 11.48 0.29L11.48 0.29L11.48 0.29Q12.61-0.75 12.89-1.50L12.89-1.50L13.00-1.83L13.44-1.65L13.44-1.65Q13.29-1.14 12.85-0.48L12.85-0.48L12.85-0.48Q12.41 0.18 11.85 0.64L11.85 0.64L11.85 0.64Q11.29 1.10 10.22 1.48L10.22 1.48L10.22 1.48Q9.15 1.87 7.85 1.87L7.85 1.87L7.85 1.87Q5.08 1.87 3.55 0.26L3.55 0.26L3.55 0.26Q2.02-1.34 2.02-4.27L2.02-4.27L2.02-4.27Q2.02-8.25 4.60-10.82L4.60-10.82L4.60-10.82Q7.17-13.40 11.35-13.40L11.35-13.40L11.35-13.40Q13.29-13.40 14.15-12.71L14.15-12.71L14.15-12.71Q15.00-12.01 15.00-10.54L15.00-10.54L15.00-10.54Q15.00-9.55 14.04-8.10L14.04-8.10L14.04-8.10Q13.16-6.69 13.16-5.90L13.16-5.90L12.67-5.90L12.67-5.90Q12.67-6.34 12.85-6.84L12.85-6.84L12.85-6.84Q13.02-7.35 13.16-7.57L13.16-7.57L13.16-7.57Q13.29-7.79 13.64-8.36L13.64-8.36L13.64-8.36Q14.50-9.66 14.50-10.49L14.50-10.49L14.50-10.49Q14.50-12.25 13.05-12.72L13.05-12.72L13.05-12.72Q12.36-12.94 11.62-12.94L11.62-12.94L11.62-12.94Q10.87-12.94 10.03-12.85L10.03-12.85L10.03-12.85Q9.26-12.61 8.57-12.22L8.57-12.22L8.57-12.22Q7.88-11.84 7.13-11.05L7.13-11.05L7.13-11.05Q6.38-10.27 5.85-9.24L5.85-9.24L5.85-9.24Q5.32-8.21 4.97-6.59L4.97-6.59L4.97-6.59Q4.62-4.97 4.62-2.99" fill="#a3d9ef" stroke="none" stroke-width="none" transform="translate(-110.2550048828125,6.491132667178204)" style="fill: rgb(130, 187, 228);"></path></g><g class="path" style="transform-origin: -90.475px 2.31113px; opacity: 1; animation: 2.77778s linear -1.65873s infinite normal forwards running blink-377dbc8d-ed30-4d4e-a13a-a3dacd28c4da;"><path d="M18.92 0.20L18.92 0.20Q17.23 0.20 16.35-0.65L16.35-0.65L16.35-0.65Q15.47-1.50 15.47-2.78L15.47-2.78L15.47-2.78Q15.47-4.07 15.70-4.98L15.70-4.98L15.70-4.98Q15.93-5.90 16.46-6.74L16.46-6.74L16.46-6.74Q16.98-7.59 18.05-8.07L18.05-8.07L18.05-8.07Q19.12-8.56 20.71-8.56L20.71-8.56L20.71-8.56Q22.31-8.56 23.20-7.71L23.20-7.71L23.20-7.71Q24.09-6.86 24.09-5.39L24.09-5.39L24.09-5.39Q24.09-2.88 22.76-1.34L22.76-1.34L22.76-1.34Q21.43 0.20 18.92 0.20L18.92 0.20zM17.95-2.07L17.95-2.07L17.95-2.07Q17.95-0.31 18.97-0.31L18.97-0.31L18.97-0.31Q20.00-0.31 20.80-2.08L20.80-2.08L20.80-2.08Q21.60-3.85 21.60-6.29L21.60-6.29L21.60-6.29Q21.60-8.14 20.60-8.14L20.60-8.14L20.60-8.14Q19.60-8.14 18.78-6.46L18.78-6.46L18.78-6.46Q17.95-4.77 17.95-2.07" fill="#a3d9ef" stroke="none" stroke-width="none" transform="translate(-110.2550048828125,6.491132667178204)" style="fill: rgb(163, 217, 239);"></path></g><g class="path" style="transform-origin: -80.775px 2.31113px; opacity: 1; animation: 2.77778s linear -1.57143s infinite normal forwards running blink-377dbc8d-ed30-4d4e-a13a-a3dacd28c4da;"><path d="M28.62 0.20L28.62 0.20Q26.93 0.20 26.05-0.65L26.05-0.65L26.05-0.65Q25.17-1.50 25.17-2.78L25.17-2.78L25.17-2.78Q25.17-4.07 25.40-4.98L25.40-4.98L25.40-4.98Q25.63-5.90 26.16-6.74L26.16-6.74L26.16-6.74Q26.69-7.59 27.75-8.07L27.75-8.07L27.75-8.07Q28.82-8.56 30.41-8.56L30.41-8.56L30.41-8.56Q32.01-8.56 32.90-7.71L32.90-7.71L32.90-7.71Q33.79-6.86 33.79-5.39L33.79-5.39L33.79-5.39Q33.79-2.88 32.46-1.34L32.46-1.34L32.46-1.34Q31.13 0.20 28.62 0.20L28.62 0.20zM27.65-2.07L27.65-2.07L27.65-2.07Q27.65-0.31 28.68-0.31L28.68-0.31L28.68-0.31Q29.70-0.31 30.50-2.08L30.50-2.08L30.50-2.08Q31.31-3.85 31.31-6.29L31.31-6.29L31.31-6.29Q31.31-8.14 30.30-8.14L30.30-8.14L30.30-8.14Q29.30-8.14 28.48-6.46L28.48-6.46L28.48-6.46Q27.65-4.77 27.65-2.07" fill="#a3d9ef" stroke="none" stroke-width="none" transform="translate(-110.2550048828125,6.491132667178204)" style="fill: rgb(33, 31, 31);"></path></g><g class="path" style="transform-origin: -70.84px -0.538864px; opacity: 1; animation: 2.77778s linear -1.48413s infinite normal forwards running blink-377dbc8d-ed30-4d4e-a13a-a3dacd28c4da;"><path d="M38.04-4.25L38.04-4.25L37.25 0L34.63 0L37.11-13.82L37.11-13.82Q36.45-13.75 36.01-13.20L36.01-13.20L35.68-13.46L35.68-13.46Q36.34-14.26 37.34-14.26L37.34-14.26L37.34-14.26Q38.35-14.26 38.90-13.75L38.90-13.75L38.90-13.75Q39.45-13.24 39.45-12.32L39.45-12.32L39.45-12.32Q39.45-12.14 39.40-11.75L39.40-11.75L39.40-11.75Q38.90-8.95 38.30-5.72L38.30-5.72L38.30-5.72Q38.85-7.06 39.89-7.81L39.89-7.81L39.89-7.81Q40.92-8.56 42.09-8.56L42.09-8.56L42.09-8.56Q43.25-8.56 43.72-8.10L43.72-8.10L43.72-8.10Q44.20-7.63 44.20-6.94L44.20-6.94L44.20-6.94Q44.20-6.25 43.78-5.81L43.78-5.81L43.78-5.81Q43.36-5.37 42.69-5.37L42.69-5.37L42.69-5.37Q42.02-5.37 41.66-5.75L41.66-5.75L41.66-5.75Q41.29-6.14 41.29-6.90L41.29-6.90L41.29-6.90Q41.29-7.66 41.82-8.05L41.82-8.05L41.82-8.05Q39.71-7.81 38.46-4.93L38.46-4.93L38.46-4.93Q38.76-4.97 38.98-4.97L38.98-4.97L38.98-4.97Q40.15-4.97 40.82-4.51L40.82-4.51L40.82-4.51Q41.49-4.05 41.69-3.38L41.69-3.38L41.69-3.38Q41.89-2.71 41.98-2.03L41.98-2.03L41.98-2.03Q42.06-1.36 42.26-0.90L42.26-0.90L42.26-0.90Q42.46-0.44 42.97-0.44L42.97-0.44L42.97-0.44Q43.47-0.44 43.76-0.86L43.76-0.86L44.09-0.59L44.09-0.59Q43.93-0.29 43.41-0.04L43.41-0.04L43.41-0.04Q42.88 0.20 42.05 0.20L42.05 0.20L42.05 0.20Q41.23 0.20 40.60-0.22L40.60-0.22L40.60-0.22Q39.97-0.64 39.73-1.26L39.73-1.26L39.73-1.26Q39.49-1.89 39.34-2.51L39.34-2.51L39.34-2.51Q38.92-4.09 38.04-4.25" fill="#a3d9ef" stroke="none" stroke-width="none" transform="translate(-110.2550048828125,6.491132667178204)" style="fill: rgb(240, 204, 180);"></path></g><g class="path" style="transform-origin: -62.81px 2.31113px; opacity: 1; animation: 2.77778s linear -1.39683s infinite normal forwards running blink-377dbc8d-ed30-4d4e-a13a-a3dacd28c4da;"><path d="M49.28-0.59L49.28-0.59Q48.62 0.20 47.63 0.20L47.63 0.20L47.63 0.20Q46.64 0.20 46.08-0.31L46.08-0.31L46.08-0.31Q45.52-0.81 45.52-1.63L45.52-1.63L45.52-1.63Q45.52-1.91 45.87-4.03L45.87-4.03L46.60-7.96L45.67-7.96L45.72-8.36L46.66-8.36L46.66-8.36Q48.29-8.36 49.06-8.49L49.06-8.49L49.37-8.56L47.85-0.24L47.85-0.24Q48.51-0.31 48.95-0.86L48.95-0.86L49.28-0.59" fill="#a3d9ef" stroke="none" stroke-width="none" transform="translate(-110.2550048828125,6.491132667178204)" style="fill: rgb(166, 97, 86);"></path></g><g class="path" style="transform-origin: -61.78px -5.31387px; opacity: 1; animation: 2.77778s linear -1.30952s infinite normal forwards running blink-377dbc8d-ed30-4d4e-a13a-a3dacd28c4da;"><path d="M47.34-10.67L47.34-10.67L47.34-10.67Q46.88-11.13 46.88-11.79L46.88-11.79L46.88-11.79Q46.88-12.45 47.34-12.92L47.34-12.92L47.34-12.92Q47.81-13.40 48.47-13.40L48.47-13.40L48.47-13.40Q49.13-13.40 49.60-12.92L49.60-12.92L49.60-12.92Q50.07-12.45 50.07-11.79L50.07-11.79L50.07-11.79Q50.07-11.13 49.60-10.67L49.60-10.67L49.60-10.67Q49.13-10.21 48.47-10.21L48.47-10.21L48.47-10.21Q47.81-10.21 47.34-10.67" fill="#a3d9ef" stroke="none" stroke-width="none" transform="translate(-110.2550048828125,6.491132667178204)" style="fill: rgb(130, 187, 228);"></path></g><g class="path" style="transform-origin: -54.715px 2.31113px; opacity: 1; animation: 2.77778s linear -1.22222s infinite normal forwards running blink-377dbc8d-ed30-4d4e-a13a-a3dacd28c4da;"><path d="M59.05-0.24L59.05-0.24L59.05-0.24Q59.58-0.24 60.15-0.86L60.15-0.86L60.48-0.59L60.48-0.59Q60.32-0.29 59.80-0.04L59.80-0.04L59.80-0.04Q59.27 0.20 58.63 0.20L58.63 0.20L58.63 0.20Q56.63 0.20 56.63-1.61L56.63-1.61L56.63-1.61Q56.63-2.38 57.02-4.36L57.02-4.36L57.02-4.36Q57.42-6.34 57.42-6.95L57.42-6.95L57.42-6.95Q57.42-7.90 56.52-7.90L56.52-7.90L56.52-7.90Q55.79-7.90 55.12-6.95L55.12-6.95L55.12-6.95Q54.45-6.01 54.01-4.36L54.01-4.36L53.26-0.24L53.26-0.24Q53.94-0.31 54.38-0.86L54.38-0.86L54.71-0.59L54.71-0.59Q54.05 0.20 53.06 0.20L53.06 0.20L53.06 0.20Q52.07 0.20 51.51-0.31L51.51-0.31L51.51-0.31Q50.95-0.81 50.95-1.63L50.95-1.63L50.95-1.63Q50.95-1.94 51.30-4.05L51.30-4.05L52.03-8.12L52.03-8.12Q51.37-8.05 50.93-7.50L50.93-7.50L50.60-7.77L50.60-7.77Q51.26-8.56 52.26-8.56L52.26-8.56L52.26-8.56Q53.26-8.56 53.81-8.05L53.81-8.05L53.81-8.05Q54.36-7.55 54.36-6.62L54.36-6.62L54.36-6.49L54.36-6.49Q55.26-8.56 57.18-8.56L57.18-8.56L57.18-8.56Q58.48-8.56 59.20-7.82L59.20-7.82L59.20-7.82Q59.93-7.08 59.93-5.79L59.93-5.79L59.93-5.79Q59.93-5.10 59.51-3.16L59.51-3.16L59.51-3.16Q59.09-1.21 59.05-0.24" fill="#a3d9ef" stroke="none" stroke-width="none" transform="translate(-110.2550048828125,6.491132667178204)" style="fill: rgb(163, 217, 239);"></path></g><g class="path" style="transform-origin: -46.4px -4.73887px; opacity: 1; animation: 2.77778s linear -1.13492s infinite normal forwards running blink-377dbc8d-ed30-4d4e-a13a-a3dacd28c4da;"><path d="M64.31-14.63L64.31-14.63L65.25-14.63L65.25-14.63Q65.25-13.44 64.32-11.14L64.32-11.14L64.32-11.14Q63.38-8.84 63.38-7.83L63.38-7.83L62.46-7.83L62.46-7.83Q62.50-9.04 63.40-11.16L63.40-11.16L63.40-11.16Q64.31-13.29 64.31-14.63" fill="#a3d9ef" stroke="none" stroke-width="none" transform="translate(-110.2550048828125,6.491132667178204)" style="fill: rgb(33, 31, 31);"></path></g><g class="path" style="transform-origin: -30.955px -0.308876px; opacity: 1; animation: 2.77778s linear -1.04762s infinite normal forwards running blink-377dbc8d-ed30-4d4e-a13a-a3dacd28c4da;"><path d="M78.91-12.17L78.91-12.17L78.91-12.17Q77.18-12.91 75.14-12.91L75.14-12.91L75.14-12.91Q73.11-12.91 71.84-11.62L71.84-11.62L71.84-11.62Q70.58-10.32 70.58-8.23L70.58-8.23L70.09-8.23L70.09-8.23Q70.09-10.52 71.50-11.96L71.50-11.96L71.50-11.96Q72.91-13.40 75.11-13.40L75.11-13.40L75.11-13.40Q76.87-13.40 78.91-12.72L78.91-12.72L78.91-12.72Q81.27-11.86 84.02-11.86L84.02-11.86L84.02-11.40L84.02-11.40Q82.37-11.40 81.38-11.55L81.38-11.55L81.38-11.55Q81.11-10.45 80.61-8.50L80.61-8.50L80.61-8.50Q80.10-6.56 79.90-5.53L79.90-5.53L79.90-5.53Q79.71-4.51 79.71-3.43L79.71-3.43L79.71-3.43Q79.71-2.35 80.44-1.66L80.44-1.66L80.44-1.66Q81.18-0.97 82.35-0.97L82.35-0.97L82.35-0.97Q83.51-0.97 84.29-1.75L84.29-1.75L84.29-1.75Q85.07-2.53 85.45-3.45L85.45-3.45L88.04-14.63L88.51-14.63L85.43-1.41L85.43-1.41Q85.23-0.59 85.23-0.31L85.23-0.31L85.23-0.31Q85.23 0.62 86.09 0.62L86.09 0.62L86.09 0.62Q86.70 0.62 87.16-0.02L87.16-0.02L87.47 0.24L87.47 0.24Q87.32 0.53 86.92 0.78L86.92 0.78L86.92 0.78Q86.53 1.03 85.96 1.03L85.96 1.03L85.96 1.03Q85.40 1.03 85.08 0.66L85.08 0.66L85.08 0.66Q84.77 0.29 84.77-0.24L84.77-0.24L85.03-1.69L85.14-2.20L85.14-2.20Q84.55-1.28 83.54-0.54L83.54-0.54L83.54-0.54Q82.54 0.20 81.33 0.20L81.33 0.20L81.33 0.20Q79.31 0.20 78.23-0.87L78.23-0.87L78.23-0.87Q77.15-1.94 77.15-3.76L77.15-3.76L77.15-3.76Q77.15-5.21 77.46-6.47L77.46-6.47L77.46-6.47Q77.77-7.72 78.21-9.40L78.21-9.40L78.21-9.40Q78.65-11.09 78.91-12.17" fill="#a3d9ef" stroke="none" stroke-width="none" transform="translate(-110.2550048828125,6.491132667178204)" style="fill: rgb(240, 204, 180);"></path></g><g class="path" style="transform-origin: -16.49px 3.76613px; opacity: 1; animation: 2.77778s linear -0.960317s infinite normal forwards running blink-377dbc8d-ed30-4d4e-a13a-a3dacd28c4da;"><path d="M93.68 0.18L93.68 0.18L93.68 0.18Q92.66 0.18 92.07-0.29L92.07-0.29L91.41 3.26L88.79 3.26L90.86-8.27L90.86-8.27Q90.20-8.21 89.76-7.66L89.76-7.66L89.43-7.92L89.43-7.92Q90.09-8.71 91.07-8.71L91.07-8.71L91.07-8.71Q92.05-8.71 92.60-8.24L92.60-8.24L92.60-8.24Q93.15-7.77 93.19-6.91L93.19-6.91L93.19-6.91Q94.16-8.56 95.66-8.56L95.66-8.56L95.66-8.56Q97.15-8.56 97.94-7.71L97.94-7.71L97.94-7.71Q98.74-6.86 98.74-5.39L98.74-5.39L98.74-5.39Q98.74-2.79 97.33-1.31L97.33-1.31L97.33-1.31Q95.92 0.18 93.68 0.18zM93.02-5.48L92.22-1.17L92.22-1.17Q92.60-0.33 93.64-0.33L93.64-0.33L93.64-0.33Q94.69-0.33 95.47-2.09L95.47-2.09L95.47-2.09Q96.25-3.85 96.25-6.29L96.25-6.29L96.25-6.29Q96.25-7.30 96.04-7.68L96.04-7.68L96.04-7.68Q95.83-8.05 95.28-8.05L95.28-8.05L95.28-8.05Q94.73-8.05 94.15-7.39L94.15-7.39L94.15-7.39Q93.57-6.73 93.30-6.15L93.30-6.15L93.30-6.15Q93.04-5.57 93.04-5.48L93.04-5.48L93.02-5.48" fill="#a3d9ef" stroke="none" stroke-width="none" transform="translate(-110.2550048828125,6.491132667178204)" style="fill: rgb(166, 97, 86);"></path></g><g class="path" style="transform-origin: 6.46503px -0.228867px; opacity: 1; animation: 2.77778s linear -0.873016s infinite normal forwards running blink-377dbc8d-ed30-4d4e-a13a-a3dacd28c4da;"><path d="M112.63-2.73L112.63-2.73L112.63-2.73Q113.12-4.27 113.53-6.14L113.53-6.14L113.53-6.14Q113.94-8.01 113.94-9.57L113.94-9.57L113.94-9.57Q113.94-11.13 113.21-12.03L113.21-12.03L113.21-12.03Q112.49-12.94 111.19-12.94L111.19-12.94L111.19-12.94Q109.32-12.94 107.73-11.53L107.73-11.53L107.73-11.53Q106.94-10.82 106.47-9.65L106.47-9.65L106.47-9.65Q106.00-8.47 106.00-7.19L106.00-7.19L106.00-7.19Q106.00-5.92 106.36-5.06L106.36-5.06L106.36-5.06Q106.72-4.20 107.23-3.76L107.23-3.76L107.23-3.76Q108.31-2.82 109.10-2.64L109.10-2.64L109.47-2.57L109.32-2.16L109.32-2.16Q108.94-2.27 108.69-2.34L108.69-2.34L108.69-2.34Q108.44-2.42 107.80-2.79L107.80-2.79L107.80-2.79Q107.16-3.17 106.71-3.64L106.71-3.64L106.71-3.64Q106.26-4.11 105.90-5.00L105.90-5.00L105.90-5.00Q105.53-5.90 105.53-7.00L105.53-7.00L105.53-7.00Q105.53-9.83 107.17-11.62L107.17-11.62L107.17-11.62Q108.81-13.40 111.43-13.40L111.43-13.40L111.43-13.40Q116.27-13.40 116.27-8.80L116.27-8.80L116.27-8.80Q116.27-6.47 115.87-5.28L115.87-5.28L115.87-5.28Q121.35-17.14 125.66-17.14L125.66-17.14L125.66-17.14Q126.90-17.14 127.40-16.60L127.40-16.60L127.40-16.60Q127.91-16.06 127.91-15.00L127.91-15.00L127.40-15.00L127.40-15.00Q127.29-15.97 126.88-16.29L126.88-16.29L126.88-16.29Q126.48-16.61 125.66-16.61L125.66-16.61L125.66-16.61Q124.30-16.61 122.70-15.17L122.70-15.17L122.70-15.17Q121.11-13.73 119.70-11.48L119.70-11.48L119.70-11.48Q116.75-6.84 115.06-1.89L115.06-1.89L115.06-1.89Q113.70 2.05 113.15 3.70L113.15 3.70L110.20 3.70L110.20 3.70Q110.64 2.73 111.39 0.77L111.39 0.77L111.39 0.77Q112.13-1.19 112.63-2.73" fill="#a3d9ef" stroke="none" stroke-width="none" transform="translate(-110.2550048828125,6.491132667178204)" style="fill: rgb(130, 187, 228);"></path></g><g class="path" style="transform-origin: 13.735px 2.31113px; opacity: 1; animation: 2.77778s linear -0.785714s infinite normal forwards running blink-377dbc8d-ed30-4d4e-a13a-a3dacd28c4da;"><path d="M123.13 0.20L123.13 0.20Q121.44 0.20 120.56-0.65L120.56-0.65L120.56-0.65Q119.68-1.50 119.68-2.78L119.68-2.78L119.68-2.78Q119.68-4.07 119.91-4.98L119.91-4.98L119.91-4.98Q120.14-5.90 120.67-6.74L120.67-6.74L120.67-6.74Q121.20-7.59 122.26-8.07L122.26-8.07L122.26-8.07Q123.33-8.56 124.93-8.56L124.93-8.56L124.93-8.56Q126.52-8.56 127.41-7.71L127.41-7.71L127.41-7.71Q128.30-6.86 128.30-5.39L128.30-5.39L128.30-5.39Q128.30-2.88 126.97-1.34L126.97-1.34L126.97-1.34Q125.64 0.20 123.13 0.20L123.13 0.20zM122.17-2.07L122.17-2.07L122.17-2.07Q122.17-0.31 123.19-0.31L123.19-0.31L123.19-0.31Q124.21-0.31 125.01-2.08L125.01-2.08L125.01-2.08Q125.82-3.85 125.82-6.29L125.82-6.29L125.82-6.29Q125.82-8.14 124.82-8.14L124.82-8.14L124.82-8.14Q123.82-8.14 122.99-6.46L122.99-6.46L122.99-6.46Q122.17-4.77 122.17-2.07" fill="#a3d9ef" stroke="none" stroke-width="none" transform="translate(-110.2550048828125,6.491132667178204)" style="fill: rgb(163, 217, 239);"></path></g><g class="path" style="transform-origin: 23.98px 2.31113px; opacity: 1; animation: 2.77778s linear -0.698413s infinite normal forwards running blink-377dbc8d-ed30-4d4e-a13a-a3dacd28c4da;"><path d="M130.75-8.12L130.75-8.12L130.75-8.12Q130.22-8.12 129.65-7.50L129.65-7.50L129.32-7.77L129.32-7.77Q129.47-8.07 130.00-8.32L130.00-8.32L130.00-8.32Q130.53-8.56 131.16-8.56L131.16-8.56L131.16-8.56Q133.17-8.56 133.17-6.75L133.17-6.75L133.17-6.75Q133.17-5.98 132.77-4.00L132.77-4.00L132.77-4.00Q132.37-2.02 132.37-1.41L132.37-1.41L132.37-1.41Q132.37-0.46 133.28-0.46L133.28-0.46L133.28-0.46Q133.91-0.46 134.52-1.21L134.52-1.21L134.52-1.21Q135.12-1.96 135.56-3.28L135.56-3.28L136.49-8.36L136.49-8.36Q138.12-8.36 138.86-8.49L138.86-8.49L139.15-8.56L137.68-0.24L137.68-0.24Q138.34-0.31 138.78-0.86L138.78-0.86L139.11-0.59L139.11-0.59Q138.45 0.20 137.46 0.20L137.46 0.20L137.46 0.20Q136.47 0.20 135.92-0.29L135.92-0.29L135.92-0.29Q135.37-0.77 135.34-1.65L135.34-1.65L135.34-1.65Q134.42 0.20 132.62 0.20L132.62 0.20L132.62 0.20Q131.32 0.20 130.59-0.54L130.59-0.54L130.59-0.54Q129.87-1.28 129.87-2.57L129.87-2.57L129.87-2.57Q129.87-3.26 130.28-5.20L130.28-5.20L130.28-5.20Q130.70-7.15 130.75-8.12" fill="#a3d9ef" stroke="none" stroke-width="none" transform="translate(-110.2550048828125,6.491132667178204)" style="fill: rgb(33, 31, 31);"></path></g><g class="path" style="transform-origin: 34.24px 2.21112px; opacity: 1; animation: 2.77778s linear -0.611111s infinite normal forwards running blink-377dbc8d-ed30-4d4e-a13a-a3dacd28c4da;"><path d="M140.82-7.50L140.49-7.77L140.49-7.77Q141.15-8.56 142.15-8.56L142.15-8.56L142.15-8.56Q143.15-8.56 143.70-8.05L143.70-8.05L143.70-8.05Q144.25-7.55 144.25-6.62L144.25-6.62L144.25-6.49L144.25-6.49Q145.24-8.56 146.83-8.56L146.83-8.56L146.83-8.56Q148.52-8.56 148.52-6.80L148.52-6.80L148.52-6.80Q148.52-6.07 148.04-5.26L148.04-5.26L148.04-5.26Q147.55-4.44 147.07-3.71L147.07-3.71L147.07-3.71Q146.59-2.97 146.59-2.40L146.59-2.40L146.06-2.40L146.06-2.40Q146.06-3.21 147.00-4.60L147.00-4.60L147.00-4.60Q147.95-5.98 147.95-6.74L147.95-6.74L147.95-6.74Q147.95-7.50 147.65-7.78L147.65-7.78L147.65-7.78Q147.36-8.05 146.77-8.05L146.77-8.05L146.77-8.05Q146.19-8.05 145.63-7.55L145.63-7.55L145.63-7.55Q145.07-7.04 144.69-6.27L144.69-6.27L144.69-6.27Q144.10-5.13 143.90-4.40L143.90-4.40L143.90-4.38L143.11 0L140.47 0L141.92-8.12L141.92-8.12Q141.26-8.05 140.82-7.50L140.82-7.50" fill="#a3d9ef" stroke="none" stroke-width="none" transform="translate(-110.2550048828125,6.491132667178204)" style="fill: rgb(240, 204, 180);"></path></g><g class="path" style="transform-origin: 55.56px 1.97113px; opacity: 1; animation: 2.77778s linear -0.52381s infinite normal forwards running blink-377dbc8d-ed30-4d4e-a13a-a3dacd28c4da;"><path d="M159.15 3.37L159.15 3.37L159.15 2.95L159.15 2.95Q160.51 2.88 161.00 2.24L161.00 2.24L161.00 2.24Q161.48 1.61 161.90-0.70L161.90-0.70L164.01-12.87L164.01-12.87Q159.50-12.50 157.05-10.92L157.05-10.92L157.05-10.92Q154.59-9.35 154.59-6.82L154.59-6.82L154.59-6.82Q154.59-5.68 155.39-4.88L155.39-4.88L155.39-4.88Q155.94-4.36 156.84-4.08L156.84-4.08L156.84-4.08Q157.74-3.81 158.32-3.77L158.32-3.77L158.32-3.77Q158.91-3.74 158.95-3.78L158.95-3.78L158.95-3.32L158.95-3.32Q156.35-3.32 155.10-4.55L155.10-4.55L155.10-4.55Q154.18-5.41 154.18-6.82L154.18-6.82L154.18-6.82Q154.18-9.97 157.46-11.68L157.46-11.68L157.46-11.68Q160.75-13.40 166.76-13.40L166.76-13.40L166.76-13.40Q170.50-13.40 172.07-12.39L172.07-12.39L172.07-12.39Q173.65-11.37 173.65-9.63L173.65-9.63L173.65-9.63Q173.65-7.88 172.45-6.62L172.45-6.62L172.45-6.62Q171.25-5.37 169.29-4.69L169.29-4.69L169.29-4.69Q172.15 1.25 172.96 2.45L172.96 2.45L172.96 2.45Q173.78 3.65 174.92 3.65L174.92 3.65L174.92 3.65Q175.60 3.65 176.14 3.22L176.14 3.22L176.14 3.22Q176.68 2.79 176.90 2.07L176.90 2.07L177.45 2.07L177.45 2.07Q176.75 4.36 174.00 4.36L174.00 4.36L174.00 4.36Q172.26 4.36 171.13 3.53L171.13 3.53L171.13 3.53Q169.99 2.71 169.22 1.03L169.22 1.03L166.85-4.11L166.85-4.11Q165.97-4.03 165.55-4.03L165.55-4.03L165.55-4.03Q165.48-3.70 165.35-2.90L165.35-2.90L165.35-2.90Q165.22-2.11 165.13-1.72L165.13-1.72L165.13-1.72Q164.69 0.66 162.92 2.01L162.92 2.01L162.92 2.01Q161.15 3.37 159.15 3.37zM173.07-9.55L173.07-9.55L173.07-9.55Q173.07-12.91 166.96-12.98L166.96-12.98L165.64-4.51L165.64-4.51Q168.76-4.60 170.92-6.08L170.92-6.08L170.92-6.08Q173.07-7.57 173.07-9.55" fill="#a3d9ef" stroke="none" stroke-width="none" transform="translate(-110.2550048828125,6.491132667178204)" style="fill: rgb(166, 97, 86);"></path></g><g class="path" style="transform-origin: 68.23px 2.31113px; opacity: 1; animation: 2.77778s linear -0.436508s infinite normal forwards running blink-377dbc8d-ed30-4d4e-a13a-a3dacd28c4da;"><path d="M179.45-8.56L179.45-8.56L179.45-8.56Q182.25-8.56 182.25-6.34L182.25-6.34L182.25-6.34Q182.25-4.95 180.94-4.23L180.94-4.23L180.94-4.23Q179.63-3.52 177.21-3.50L177.21-3.50L177.21-3.50Q177.17-2.71 177.17-2.24L177.17-2.24L177.17-2.24Q177.17-1.25 177.62-0.78L177.62-0.78L177.62-0.78Q178.07-0.31 178.75-0.31L178.75-0.31L178.75-0.31Q179.43-0.31 179.99-0.57L179.99-0.57L179.99-0.57Q180.55-0.84 180.88-1.20L180.88-1.20L180.88-1.20Q181.21-1.56 181.46-1.96L181.46-1.96L181.46-1.96Q181.90-2.68 181.90-2.88L181.90-2.88L182.29-2.71L182.29-2.71Q182.23-2.35 181.90-1.77L181.90-1.77L181.90-1.77Q181.57-1.19 181.17-0.81L181.17-0.81L181.17-0.81Q180.77-0.44 180.00-0.12L180.00-0.12L180.00-0.12Q179.23 0.20 178.29 0.20L178.29 0.20L178.29 0.20Q176.51 0.20 175.59-0.65L175.59-0.65L175.59-0.65Q174.68-1.50 174.68-2.97L174.68-2.97L174.68-2.97Q174.68-5.59 175.98-7.07L175.98-7.07L175.98-7.07Q177.28-8.56 179.45-8.56zM181.70-6.34L181.70-6.34Q181.70-7.06 181.27-7.53L181.27-7.53L181.27-7.53Q180.84-8.01 179.99-8.01L179.99-8.01L179.99-8.01Q179.15-8.01 178.34-7.00L178.34-7.00L178.34-7.00Q177.54-5.98 177.28-4.00L177.28-4.00L177.28-4.00Q181.70-4.03 181.70-6.34L181.70-6.34" fill="#a3d9ef" stroke="none" stroke-width="none" transform="translate(-110.2550048828125,6.491132667178204)" style="fill: rgb(130, 187, 228);"></path></g><g class="path" style="transform-origin: 76.33px 1.80613px; opacity: 1; animation: 2.77778s linear -0.349206s infinite normal forwards running blink-377dbc8d-ed30-4d4e-a13a-a3dacd28c4da;"><path d="M185.50-0.37L185.50-0.37L185.50-0.37Q187.68-0.37 187.68-3.59L187.68-3.59L187.68-3.59Q187.68-4.38 187.45-5.46L187.45-5.46L187.45-5.46Q187.22-6.53 187.18-6.80L187.18-6.80L187.18-6.80Q185.83-5.41 184.16-5.13L184.16-5.13L184.16-5.65L184.16-5.65Q185.75-6.01 187.13-7.46L187.13-7.46L187.13-7.55L187.13-7.55Q187.13-8.07 187.29-8.58L187.29-8.58L187.29-8.58Q187.44-9.09 187.59-9.33L187.59-9.33L187.75-9.57L188.28-9.57L188.28-9.57Q188.28-8.60 188.58-7.80L188.58-7.80L188.58-7.80Q188.89-7.00 189.27-6.50L189.27-6.50L189.27-6.50Q189.64-6.01 189.95-5.20L189.95-5.20L189.95-5.20Q190.26-4.40 190.26-3.43L190.26-3.43L190.26-3.43Q190.26-1.87 189.08-0.84L189.08-0.84L189.08-0.84Q187.90 0.20 186.25 0.20L186.25 0.20L186.25 0.20Q184.60 0.20 183.75-0.55L183.75-0.55L183.75-0.55Q182.91-1.30 182.91-2.28L182.91-2.28L182.91-2.28Q182.91-3.26 183.39-3.68L183.39-3.68L183.39-3.68Q183.88-4.11 184.54-4.11L184.54-4.11L184.54-4.11Q185.20-4.11 185.63-3.68L185.63-3.68L185.63-3.68Q186.05-3.26 186.05-2.58L186.05-2.58L186.05-2.58Q186.05-1.91 185.64-1.45L185.64-1.45L185.64-1.45Q185.22-0.99 184.56-0.99L184.56-0.99L184.56-0.99Q184.27-0.99 183.96-1.08L183.96-1.08L183.96-1.08Q184.45-0.37 185.50-0.37" fill="#a3d9ef" stroke="none" stroke-width="none" transform="translate(-110.2550048828125,6.491132667178204)" style="fill: rgb(163, 217, 239);"></path></g><g class="path" style="transform-origin: 86.13px 2.31113px; opacity: 1; animation: 2.77778s linear -0.261905s infinite normal forwards running blink-377dbc8d-ed30-4d4e-a13a-a3dacd28c4da;"><path d="M192.90-8.12L192.90-8.12L192.90-8.12Q192.37-8.12 191.80-7.50L191.80-7.50L191.47-7.77L191.47-7.77Q191.62-8.07 192.15-8.32L192.15-8.32L192.15-8.32Q192.68-8.56 193.31-8.56L193.31-8.56L193.31-8.56Q195.32-8.56 195.32-6.75L195.32-6.75L195.32-6.75Q195.32-5.98 194.92-4.00L194.92-4.00L194.92-4.00Q194.52-2.02 194.52-1.41L194.52-1.41L194.52-1.41Q194.52-0.46 195.43-0.46L195.43-0.46L195.43-0.46Q196.06-0.46 196.67-1.21L196.67-1.21L196.67-1.21Q197.27-1.96 197.71-3.28L197.71-3.28L198.64-8.36L198.64-8.36Q200.27-8.36 201.01-8.49L201.01-8.49L201.30-8.56L199.83-0.24L199.83-0.24Q200.49-0.31 200.93-0.86L200.93-0.86L201.26-0.59L201.26-0.59Q200.60 0.20 199.61 0.20L199.61 0.20L199.61 0.20Q198.62 0.20 198.07-0.29L198.07-0.29L198.07-0.29Q197.52-0.77 197.49-1.65L197.49-1.65L197.49-1.65Q196.57 0.20 194.77 0.20L194.77 0.20L194.77 0.20Q193.47 0.20 192.74-0.54L192.74-0.54L192.74-0.54Q192.02-1.28 192.02-2.57L192.02-2.57L192.02-2.57Q192.02-3.26 192.43-5.20L192.43-5.20L192.43-5.20Q192.85-7.15 192.90-8.12" fill="#a3d9ef" stroke="none" stroke-width="none" transform="translate(-110.2550048828125,6.491132667178204)" style="fill: rgb(33, 31, 31);"></path></g><g class="path" style="transform-origin: 95.435px -0.538864px; opacity: 1; animation: 2.77778s linear -0.174603s infinite normal forwards running blink-377dbc8d-ed30-4d4e-a13a-a3dacd28c4da;"><path d="M206.54-0.79L206.54-0.79L206.54-0.79Q206.25-0.42 205.76-0.11L205.76-0.11L205.76-0.11Q205.26 0.20 204.47 0.20L204.47 0.20L204.47 0.20Q203.68 0.20 203.13-0.31L203.13-0.31L203.13-0.31Q202.58-0.81 202.58-1.74L202.58-1.74L202.58-1.74Q202.58-1.91 202.62-2.31L202.62-2.31L204.05-10.23L204.05-10.23Q204.45-12.41 205.14-13.33L205.14-13.33L205.14-13.33Q205.83-14.26 206.98-14.26L206.98-14.26L206.98-14.26Q207.77-14.26 208.29-13.66L208.29-13.66L208.29-13.66Q208.80-13.07 208.80-11.86L208.80-11.86L208.80-11.86Q208.80-10.65 207.87-8.40L207.87-8.40L207.87-8.40Q206.93-6.16 206.93-5.13L206.93-5.13L206.54-5.13L206.54-5.13Q206.54-6.29 207.46-8.46L207.46-8.46L207.46-8.46Q208.38-10.63 208.38-11.92L208.38-11.92L208.38-11.92Q208.38-12.72 208.02-13.29L208.02-13.29L208.02-13.29Q207.66-13.86 207.13-13.86L207.13-13.86L207.13-13.86Q207.11-13.29 206.37-8.72L206.37-8.72L206.37-8.72Q205.63-4.16 204.91-0.24L204.91-0.24L204.91-0.24Q205.52-0.24 206.05-0.88L206.05-0.88L206.05-0.88Q206.58-1.52 206.80-2.16L206.80-2.16L207.04-2.82L207.44-2.64L207.44-2.64Q207.37-2.33 207.10-1.75L207.10-1.75L207.10-1.75Q206.82-1.17 206.54-0.79" fill="#a3d9ef" stroke="none" stroke-width="none" transform="translate(-110.2550048828125,6.491132667178204)" style="fill: rgb(240, 204, 180);"></path></g><g class="path" style="transform-origin: 101.825px 0.686134px; opacity: 1; animation: 2.77778s linear -0.0873016s infinite normal forwards running blink-377dbc8d-ed30-4d4e-a13a-a3dacd28c4da;"><path d="M208.87-8.36L209.99-8.36L210.58-11.62L210.58-11.62Q212.21-11.62 213.00-11.75L213.00-11.75L213.29-11.81L213.29-11.81Q212.98-10.27 212.61-8.36L212.61-8.36L215.34-8.36L215.29-7.96L212.54-7.96L212.54-7.96Q211.44-2.29 211.44-1.12L211.44-1.12L211.44-1.12Q211.44-0.42 212.19-0.42L212.19-0.42L212.19-0.42Q212.94-0.42 213.55-1.36L213.55-1.36L213.55-1.36Q214.17-2.31 214.43-3.41L214.43-3.41L214.83-3.28L214.83-3.28Q214.02 0.20 211.46 0.20L211.46 0.20L211.46 0.20Q210.41 0.20 209.70-0.38L209.70-0.38L209.70-0.38Q209.00-0.97 209.00-2.01L209.00-2.01L209.00-2.01Q209.00-3.06 209.90-7.96L209.90-7.96L208.82-7.96L208.87-8.36" fill="#a3d9ef" stroke="none" stroke-width="none" transform="translate(-110.2550048828125,6.491132667178204)" style="fill: rgb(166, 97, 86);"></path></g><g class="path" style="transform-origin: 108.6px 1.80613px; opacity: 1; animation: 2.77778s linear 0s infinite normal forwards running blink-377dbc8d-ed30-4d4e-a13a-a3dacd28c4da;"><path d="M217.78-0.37L217.78-0.37L217.78-0.37Q219.96-0.37 219.96-3.59L219.96-3.59L219.96-3.59Q219.96-4.38 219.73-5.46L219.73-5.46L219.73-5.46Q219.49-6.53 219.45-6.80L219.45-6.80L219.45-6.80Q218.11-5.41 216.44-5.13L216.44-5.13L216.44-5.65L216.44-5.65Q218.02-6.01 219.41-7.46L219.41-7.46L219.41-7.55L219.41-7.55Q219.41-8.07 219.56-8.58L219.56-8.58L219.56-8.58Q219.71-9.09 219.87-9.33L219.87-9.33L220.02-9.57L220.55-9.57L220.55-9.57Q220.55-8.60 220.86-7.80L220.86-7.80L220.86-7.80Q221.17-7.00 221.54-6.50L221.54-6.50L221.54-6.50Q221.91-6.01 222.22-5.20L222.22-5.20L222.22-5.20Q222.53-4.40 222.53-3.43L222.53-3.43L222.53-3.43Q222.53-1.87 221.35-0.84L221.35-0.84L221.35-0.84Q220.18 0.20 218.53 0.20L218.53 0.20L218.53 0.20Q216.88 0.20 216.03-0.55L216.03-0.55L216.03-0.55Q215.18-1.30 215.18-2.28L215.18-2.28L215.18-2.28Q215.18-3.26 215.67-3.68L215.67-3.68L215.67-3.68Q216.15-4.11 216.81-4.11L216.81-4.11L216.81-4.11Q217.47-4.11 217.90-3.68L217.90-3.68L217.90-3.68Q218.33-3.26 218.33-2.58L218.33-2.58L218.33-2.58Q218.33-1.91 217.91-1.45L217.91-1.45L217.91-1.45Q217.49-0.99 216.83-0.99L216.83-0.99L216.83-0.99Q216.55-0.99 216.24-1.08L216.24-1.08L216.24-1.08Q216.72-0.37 217.78-0.37" fill="#a3d9ef" stroke="none" stroke-width="none" transform="translate(-110.2550048828125,6.491132667178204)" style="fill: rgb(130, 187, 228);"></path></g></g>
</g>
<style id="blink-377dbc8d-ed30-4d4e-a13a-a3dacd28c4da" data-anikit="">@keyframes blink-377dbc8d-ed30-4d4e-a13a-a3dacd28c4da {
  0% { opacity: 1; }
  49.75% { opacity: 1; }
  50.24999999999999% { opacity: 0; }
  99.5% { opacity: 0; }
  100% { opacity: 1; }
}</style><style id="blink-377dbc8d-ed30-4d4e-a13a-a3dacd28c4da" data-anikit="">@keyframes blink-377dbc8d-ed30-4d4e-a13a-a3dacd28c4da {
  0% { opacity: 1; }
  49.75% { opacity: 1; }
  50.24999999999999% { opacity: 0; }
  99.5% { opacity: 0; }
  100% { opacity: 1; }
}</style></svg>